# xmcd
#
# Track frame offsets:
# 150
# 16426
# 30108
# 42050
# 54707
# 68821
# 84712
# 101050
# 115888
# 134124
# 151484
#
# Disc length: 2215 seconds
#
# Revision: 1
# Processed by: cddbd v1.5.1PL2 Copyright (c) Steve Scherf et al.
# Submitted via: Axialis_AX_CDPlayer 2.6
#
DISCID=9008a50b
DTITLE=Various Artist - Country Favorites - Disc 1 of 4
DYEAR=2006
DGENRE=Country
TTITLE0=Shes A Miracle - Exile
TTITLE1=16th Avenue - Lacy J. Dalton
TTITLE2=She's Not Cheatin' Shes Just Getting Even - Moe Bandy
TTITLE3=You Really Had Me Going - Holly Dunn
TTITLE4=Do You Want To Go To Heaven - TG Sheppard
TTITLE5=Another Somebody Done Somebody Wrong Song - BJ Thomas
TTITLE6=Always Have Always Will - Janie Fricky
TTITLE7=Queen Of Hearts - Juice Newton
TTITLE8=Secret Love - Freddy Fender (Live)
TTITLE9=Super Love - Exile
TTITLE10=Love Someone Like Me - Holly Dunn
EXTD=
EXTT0=
EXTT1=
EXTT2=
EXTT3=
EXTT4=
EXTT5=
EXTT6=
EXTT7=
EXTT8=
EXTT9=
EXTT10=
PLAYORDER=
